<?xml version="1.0" encoding="UTF-8"?>
<svg xmlns="http://www.w3.org/2000/svg" width="90" height="90" viewBox="0 0 90 90" fill="none">
  <path d="M45 90C69.8528 90 90 69.8528 90 45C90 20.1472 69.8528 0 45 0C20.1472 0 0 20.1472 0 45C0 69.8528 20.1472 90 45 90Z" fill="#FAE5B8"></path>
  <path d="M46.8524 33.323C46.4653 33.2262 45.9814 33.4198 45.8846 33.9037C45.8846 34.0004 45.8846 34.0004 45.8846 34.0972C42.2072 34.194 39.4008 37.2908 39.4975 40.9682C39.5943 44.2585 42.1104 46.8714 45.304 47.3553C48.8846 47.4521 51.9814 44.9359 52.4653 41.3553C52.9492 37.5811 50.5298 34.194 46.8524 33.323ZM46.0782 45.8069C39.0137 46.0972 39.2072 35.4521 46.2717 35.5488C46.6588 35.5488 46.9492 35.3553 47.0459 34.9682C49.4653 35.7424 51.1104 37.9682 51.1104 40.5811C50.9169 43.2908 48.7879 45.5166 46.0782 45.8069Z" fill="#1C1C1E"></path>
  <path d="M47.1428 37.5811C47.046 37.194 46.5621 36.9037 46.175 37.0004C45.7879 37.0972 45.4976 37.5811 45.5944 37.9682C45.7879 38.6456 45.7879 39.4198 45.5944 40.194H43.0783C42.5944 40.194 42.3041 40.5811 42.3041 40.9682C42.3041 41.4521 42.6912 41.7424 43.0783 41.7424H46.3686C46.7557 41.7424 47.1428 41.3553 47.1428 40.9682C47.1428 40.8714 47.1428 40.7746 47.046 40.6779C47.3363 39.7101 47.4331 38.6456 47.1428 37.5811Z" fill="#1C1C1E"></path>
  <path d="M75.3039 72.5165L73.3685 72.6133L73.9491 45.5165V45.4197C74.0459 45.0326 73.7556 44.5488 73.3685 44.452C73.2717 44.452 73.2717 44.452 73.1749 44.452H72.8846C68.6265 41.2584 63.9814 38.452 59.0459 36.1294C59.0459 34.0972 59.0459 32.1617 58.9491 30.1294C60.7878 30.2262 62.6265 30.323 64.3685 30.4197C64.6588 30.4197 64.9491 30.323 65.0459 30.0326C65.433 29.7423 65.433 29.2584 65.1427 28.8714C60.0136 22.7746 53.1427 18.6133 46.1749 14.5488C46.0781 14.452 45.9814 14.452 45.8846 14.452C45.691 14.3552 45.4007 14.3552 45.2072 14.5488L27.0136 28.0972C26.8201 28.1939 26.7233 28.4843 26.7233 28.6778C25.9491 28.9681 26.433 30.2262 27.3039 30.1294C29.0459 29.8391 30.8846 29.7423 32.7233 29.5488C32.6265 31.7746 32.6265 33.9036 32.6265 36.1294L18.1104 44.3552C17.8201 44.5488 17.6265 44.9359 17.8201 45.2262V45.323C17.8201 45.4197 17.8201 45.5165 17.8201 45.6133C17.8201 54.9036 17.9168 64.1939 17.9168 73.4843C16.9491 73.4843 15.8846 73.3875 14.9168 73.2907C13.9491 73.1939 13.9491 74.8391 14.9168 74.8391C24.9814 75.5165 35.0459 75.1294 45.1104 75.1294C49.2717 75.1294 53.433 75.0326 57.4975 74.9359H57.691C62.433 74.8391 67.1749 74.6455 71.9169 74.3552C72.1104 74.7423 72.5943 74.8391 72.9814 74.6455C73.1749 74.5488 73.2717 74.452 73.3685 74.2584L75.3039 74.1617C76.3685 74.0649 76.3685 72.5165 75.3039 72.5165ZM70.2717 44.452L66.4007 44.3552C66.4007 44.0649 66.2072 43.8713 66.0136 43.6778L59.433 40.0972C59.3362 40.0972 59.3362 40.0004 59.2394 40.0004C59.2394 39.323 59.2394 38.6455 59.2394 37.9681C63.0136 39.8068 66.691 41.9359 70.2717 44.452ZM63.7878 44.2584L59.2394 44.1617C59.2394 43.3875 59.2394 42.6133 59.2394 41.8391L63.7878 44.2584ZM59.2394 45.7101L72.4975 46.0972L72.0136 65.0649L58.8523 65.3552C59.0459 58.7746 59.2394 52.1939 59.2394 45.7101ZM63.0136 28.7746L58.8523 28.581C58.7556 28.4843 58.7556 28.3875 58.6588 28.3875L60.691 26.5488C61.4652 27.2262 62.2394 28.0004 63.0136 28.7746ZM57.691 23.9359C58.2717 24.4197 58.9491 24.9036 59.5298 25.3875L56.9169 27.8068C56.7233 27.9036 56.6265 28.1939 56.6265 28.3875L51.5943 28.0972L57.4007 24.2262C57.5943 24.2262 57.5943 24.1294 57.691 23.9359ZM53.8201 21.2262C54.691 21.8068 55.562 22.4843 56.433 23.0649L49.0781 28.0004H48.9814C47.2394 27.9036 45.4007 27.9036 43.6588 27.8068C47.1427 25.8713 50.5298 23.7423 53.6265 21.323C53.7233 21.323 53.7233 21.2262 53.8201 21.2262ZM52.4652 20.2584C48.8846 22.9681 45.0136 25.3875 41.0459 27.4197C40.8523 27.5165 40.7556 27.6133 40.6588 27.8068C39.3039 27.8068 37.8523 27.8068 36.4975 27.9036L50.0459 18.8068C50.8201 19.1939 51.691 19.7746 52.4652 20.2584ZM32.5298 37.9681C32.5298 38.6455 32.5298 39.2262 32.5298 39.9036L25.2717 44.1617C25.0781 44.2584 24.9814 44.3552 24.8846 44.5488H20.9168L32.5298 37.9681ZM32.5298 41.7423C32.5298 42.7101 32.5298 43.581 32.5298 44.5488H27.7878L32.5298 41.7423ZM19.3685 46.1939L32.5298 46.0972C32.5298 52.2907 32.6265 58.4843 32.9168 64.6778L19.4652 64.9681C19.4652 58.7746 19.3685 52.4843 19.3685 46.1939ZM19.4652 66.6133L32.9168 66.323C32.9168 66.8068 32.9168 67.2907 32.9168 67.7746H19.4652V66.6133ZM19.562 73.4843V69.2262H33.1104C33.2072 70.6778 33.2072 72.1294 33.3039 73.581C28.6588 73.6778 24.1104 73.6778 19.562 73.4843ZM33.4975 28.0004C32.1427 28.0972 30.691 28.1939 29.3362 28.3875L45.691 16.1939L48.4975 17.8391L33.691 27.8068C33.5943 27.9036 33.5943 27.9036 33.4975 28.0004ZM41.433 73.4843C41.5298 73.3875 41.5298 73.1939 41.5298 73.0972C41.7233 68.9359 41.6265 64.7746 41.2394 60.6133H44.6265L44.8201 73.4843V73.581L41.433 73.4843ZM50.1427 73.4843H46.4652C46.4652 73.4843 46.4652 73.4843 46.4652 73.3875C46.4652 69.1294 46.3685 64.8714 46.3685 60.5165H50.5298C50.7233 64.6778 50.5298 68.9359 50.0459 73.0972C49.9491 73.1939 49.9491 73.3875 50.1427 73.4843ZM51.4975 73.4843C51.4975 73.3875 51.5943 73.2907 51.5943 73.1939C52.0781 68.8391 52.1749 64.4843 51.9814 60.0326C51.9814 59.9359 51.9814 59.9359 51.9814 59.8391C51.9814 59.452 51.691 59.0649 51.3039 59.0649H51.2072H40.562C40.2717 59.0649 39.9814 59.1617 39.8846 59.452C39.691 59.6455 39.691 59.8391 39.691 60.0326C40.1749 64.3875 40.2717 68.8391 40.0781 73.1939C40.0781 73.3875 40.0781 73.4843 40.1749 73.6778L34.9491 73.7746C34.8523 71.2584 34.6588 68.8391 34.562 66.323C34.9491 66.1294 35.1427 65.6455 34.8523 65.2584C34.7556 65.0649 34.562 64.9681 34.3685 64.8714C34.1749 58.4843 33.9814 52.0972 33.9814 45.8068C33.9814 45.6133 33.9814 45.5165 33.9814 45.323C33.9814 42.5165 33.9814 39.8068 33.9814 37.0004V36.9036C33.9814 34.4843 33.9814 32.1617 34.0781 29.7423C41.8201 29.452 49.562 29.6455 57.3039 30.323C57.691 44.7423 57.4975 59.2584 56.7233 73.6778L51.4975 73.4843ZM71.8201 72.8068C67.3685 73.0972 62.9168 73.2907 58.4652 73.3875C58.562 72.1294 58.562 70.7746 58.6588 69.5165L71.9169 69.2262L71.8201 72.8068ZM71.9169 67.581L58.7556 67.8714C58.7556 67.581 58.7556 67.1939 58.7556 66.9036L72.0136 66.6133L71.9169 67.581Z" fill="#1C1C1E"></path>
  <path d="M29.7233 52.581C29.7233 52.1939 29.433 51.9036 29.0459 51.8068C28.9491 51.7101 28.7555 51.6133 28.4652 51.6133L23.2394 51.8068C23.1426 51.8068 23.0459 51.8068 22.9491 51.9036C22.562 51.8068 22.1749 52.0972 22.0781 52.4843C22.0781 52.581 22.0781 52.581 22.0781 52.6778L22.2717 59.452C22.2717 59.9359 22.6588 60.2262 23.1426 60.2262C23.3362 60.2262 23.433 60.1294 23.5297 60.0326L28.4652 60.1294C28.562 60.1294 28.7555 60.1294 28.8523 60.0326C29.2394 60.1294 29.6265 59.9359 29.8201 59.5488C29.8201 59.452 29.8201 59.3552 29.8201 59.2584L29.7233 52.581ZM28.1749 53.2584L28.2717 58.581L23.9168 58.4842L23.8201 53.452L28.1749 53.2584ZM69.1104 52.581C69.1104 52.1939 68.8201 51.9036 68.433 51.8068C68.3362 51.7101 68.1426 51.6133 67.9491 51.6133L62.7233 51.8068C62.6265 51.8068 62.5297 51.8068 62.433 51.9036C62.0459 51.8068 61.6588 52.0972 61.562 52.4843C61.562 52.581 61.562 52.581 61.562 52.6778L61.7555 59.452C61.7555 59.9359 62.1426 60.2262 62.6265 60.2262C62.8201 60.2262 62.9168 60.1294 63.0136 60.0326L68.0459 60.1294C68.1426 60.1294 68.3362 60.1294 68.433 60.0326C68.8201 60.1294 69.2072 59.9359 69.4007 59.5488C69.4007 59.452 69.4007 59.3552 69.4007 59.2584L69.1104 52.581ZM67.4652 53.2584L67.562 58.581L63.2072 58.4842L63.1104 53.452L67.4652 53.2584Z" fill="#1C1C1E"></path>
</svg>
