<?xml version="1.0" encoding="UTF-8"?>
<svg xmlns="http://www.w3.org/2000/svg" width="90" height="82" viewBox="0 0 90 82" fill="none">
  <path d="M45 81.9467C69.8528 81.9467 90 63.8095 90 41.4362C90 19.0629 69.8528 0.925781 45 0.925781C20.1472 0.925781 0 19.0629 0 41.4362C0 63.8095 20.1472 81.9467 45 81.9467Z" fill="#BCDDE4"></path>
  <path d="M37.7964 58.5763C37.6974 58.1307 37.3013 57.8633 36.9053 57.8633C36.5093 57.8633 36.2122 58.2198 36.1132 58.5763L36.2122 66.9547C33.3409 67.2221 30.3706 67.2221 27.4003 66.7765L27.3013 58.5763C27.2023 58.1307 26.8063 57.8633 26.4102 57.8633C26.0142 57.8633 25.7172 58.2198 25.6182 58.5763L25.7172 67.2221C25.6182 67.4895 25.6182 67.7569 25.8162 67.9352C26.0142 68.2026 26.5093 68.3808 26.9053 68.2026C30.0736 68.6482 33.2419 68.7374 36.5093 68.3808C36.6083 68.3808 36.8063 68.2917 36.9053 68.2026C37.3013 68.2917 37.7964 68.1134 37.8954 67.6678C37.8954 67.5787 37.8954 67.4895 37.8954 67.4895L37.7964 58.5763Z" fill="#1C1C1E"></path>
  <path d="M29.1824 58.8439L28.9844 64.4592C28.9844 65.4396 30.6675 65.4396 30.6675 64.4592L30.8656 58.8439C30.8656 57.8634 29.2814 57.8634 29.1824 58.8439ZM32.4497 58.3091L32.3507 61.8743C32.3507 62.8548 34.0339 62.8548 34.0339 61.8743L34.1329 58.3091C34.1329 57.3286 32.4497 57.3286 32.4497 58.3091ZM65.9151 58.5765C65.8161 58.1308 65.42 57.8634 65.024 57.8634C64.6279 57.8634 64.3309 58.2199 64.2319 58.5765L64.3309 66.9549C61.4596 67.2223 58.4893 67.2223 55.519 66.7766L55.42 58.5765C55.321 58.1308 54.925 57.8634 54.5289 57.8634C54.1329 57.8634 53.8359 58.2199 53.7368 58.5765L53.8359 67.2223C53.7369 67.4897 53.7368 67.757 53.9349 67.9353C54.1329 68.2027 54.6279 68.381 55.024 68.2027C58.1923 68.6484 61.3606 68.7375 64.6279 68.381C64.7269 68.381 64.925 68.2918 65.024 68.2027C65.42 68.2918 65.9151 68.1136 66.0141 67.6679C66.0141 67.5788 66.0141 67.4897 66.0141 67.4897L65.9151 58.5765Z" fill="#1C1C1E"></path>
  <path d="M57.3011 58.8437L57.1031 64.459C57.1031 65.4394 58.7862 65.4394 58.7862 64.459L58.9843 58.8437C58.9843 57.8632 57.3011 57.8632 57.3011 58.8437ZM60.5684 58.3089L60.4694 61.8742C60.4694 62.8546 62.1526 62.8546 62.1526 61.8742L62.2516 58.3089C62.2516 57.3284 60.5684 57.3284 60.5684 58.3089ZM63.1427 31.3911C63.1427 31.3019 63.1427 31.2128 63.1427 31.2128V31.0345C63.1427 30.5889 62.7466 30.3215 62.2516 30.3215C62.0536 30.3215 61.8556 30.4106 61.6575 30.5889L30.1724 30.4997C29.7763 30.3215 29.2813 30.4106 28.9843 30.7671C28.8853 30.8563 28.8853 31.0345 28.8853 31.1237V31.2128L28.9843 42.0869C28.9843 42.176 28.9843 42.2651 29.0833 42.3543C29.0833 42.7108 29.4793 42.9782 29.8754 42.9782L62.1526 42.8891C62.3506 42.8891 62.5486 42.7999 62.6476 42.7108C62.9447 42.6217 63.2417 42.3543 63.2417 41.9977L63.1427 31.3911ZM51.2615 41.463L55.0239 36.8281C55.6179 36.0259 54.2318 35.2237 53.6377 36.0259L49.5783 41.1064C49.4793 41.1956 49.4793 41.2847 49.3803 41.463H37.0041L41.2615 36.2933C41.8556 35.4911 40.4694 34.7781 39.7763 35.4911L35.2219 41.1064C35.1229 41.1956 35.1229 41.2847 35.1229 41.463H30.7664V32.015L61.5585 32.1041V41.463H51.2615ZM55.6179 24.0822C55.6179 23.7257 55.3209 23.3692 54.9249 23.3692C54.8258 23.2801 54.7268 23.28 54.6278 23.28L37.5981 23.1909C37.4991 23.1909 37.3011 23.1909 37.2021 23.28C36.9051 23.3692 36.608 23.6366 36.707 23.9931V27.4692C36.707 27.6475 36.806 27.8258 36.9051 28.004C37.0041 28.2714 37.3011 28.3606 37.5981 28.3606H54.6278C54.9249 28.3606 55.3209 28.1823 55.4199 27.9149C55.5189 27.8258 55.6179 27.6475 55.6179 27.4692V24.0822ZM38.2912 24.7062L53.9348 24.7953L53.8358 26.8453L38.2912 26.7562V24.7062ZM33.6377 24.9736C33.1427 23.904 31.8556 23.3692 30.6674 23.7257C30.4694 23.8148 30.3704 23.904 30.1724 23.9931C29.1823 24.617 28.7862 25.7757 29.2813 26.7562C29.8754 27.8258 31.3605 28.1823 32.4496 27.6475C33.6377 27.1127 34.1328 25.954 33.6377 24.9736ZM31.7565 26.3105C30.9645 26.6671 30.3704 25.6866 31.1625 25.241L31.2615 25.1518C31.9546 25.1518 32.5486 25.954 31.7565 26.3105ZM63.0437 24.9736C62.5486 23.904 61.2615 23.3692 60.0734 23.7257C59.8754 23.8148 59.7763 23.904 59.5783 23.9931C58.5882 24.617 58.1922 25.7757 58.7862 26.7562C59.3803 27.8258 60.8655 28.1823 61.9546 27.6475C63.0437 27.1127 63.5387 25.954 63.0437 24.9736ZM61.1625 26.3105C60.3704 26.6671 59.7763 25.6866 60.5684 25.241L60.7664 25.1518C61.4595 25.1518 61.9546 25.954 61.1625 26.3105Z" fill="#1C1C1E"></path>
  <path d="M76.1131 34.689L71.9547 34.5999C71.4597 34.5999 71.1626 34.9564 71.1626 35.3129C71.1626 35.4912 71.1626 35.5803 71.2616 35.7586L71.1626 43.7805C71.0636 44.137 71.2616 44.5826 71.7567 44.6718C71.8557 44.6718 71.8557 44.6718 71.9547 44.6718H73.1428V47.6131L68.2913 47.524L67.9943 30.4107C67.8953 27.4693 68.0933 24.3497 65.9151 21.9431C63.5389 19.2692 59.5785 18.467 55.9151 17.9322C55.8161 17.9322 55.7171 17.9322 55.7171 17.9322H55.6181L34.727 17.7539C34.529 17.5757 34.3309 17.5757 34.0339 17.5757C26.6082 18.8235 22.9448 24.4388 22.5488 30.8563C22.2517 36.2934 22.3507 41.8196 22.8458 47.2566L17.6973 47.0783V44.4935H18.8854H18.9844C19.3805 44.5826 19.8755 44.4044 19.9745 43.9587C19.9745 43.8696 19.9745 43.8696 19.9745 43.7805L20.0735 35.2238C20.0735 34.7781 19.6775 34.5107 19.2814 34.4216C19.1824 34.4216 18.9844 34.4216 18.8854 34.5107L14.727 34.4216C14.2319 34.4216 13.9349 34.7781 13.9349 35.1347C13.9349 35.3129 13.9349 35.4021 14.0339 35.5803L13.9349 43.6022C13.8359 43.9587 14.0339 44.4044 14.529 44.4935C14.628 44.4935 14.628 44.4935 14.727 44.4935H16.0141V47.8805C16.0141 48.3262 16.4102 48.5936 16.9052 48.5936C17.1032 48.5936 17.2022 48.5044 17.4003 48.5044L22.9448 48.7718C23.1428 51.5349 23.3408 54.298 23.6379 57.0611C23.2418 57.2394 23.0438 57.685 23.1428 58.0416C23.2418 58.309 23.5389 58.4872 23.9349 58.4872L68.1923 58.7546C68.6874 58.7546 68.9844 58.3981 68.9844 57.9524C68.9844 57.685 68.7864 57.5068 68.5884 57.3285L68.4894 49.0392L73.8359 49.1284C74.2319 49.1284 74.529 48.9501 74.628 48.6827C74.826 48.5936 75.024 48.3262 75.024 48.0588V44.5826H76.2121H76.3111C76.7072 44.6718 77.2022 44.4935 77.3012 44.0479C77.3012 43.9587 77.3012 43.9587 77.3012 43.8696L77.4003 35.3129C77.4003 34.8673 77.0042 34.5999 76.5092 34.5999C76.4102 34.5107 76.3111 34.5999 76.1131 34.689ZM15.7171 43.1565L15.8161 36.1151L18.4894 36.2042L18.3904 43.1565H15.7171ZM25.321 57.0611C24.727 49.8414 24.43 42.6217 24.2319 35.4021C24.2319 31.8368 24.0339 28.0041 25.8161 24.7062C27.4993 21.854 30.4696 19.804 34.0339 19.1801C34.1329 19.2692 34.3309 19.2692 34.43 19.2692L55.6181 19.4475H55.7171C59.3805 19.9822 63.6379 20.7844 65.4201 24.0823C67.2022 27.3802 66.3111 32.015 66.4102 35.4021L66.8062 57.3285L25.321 57.0611ZM75.6181 43.0674L72.9448 43.1565L73.0438 36.1151L75.7171 36.2042L75.6181 43.0674Z" fill="#1C1C1E"></path>
  <path d="M36.0141 46.7218H30.5685C30.1725 46.4544 29.5784 46.6326 29.3804 46.9892C29.2814 47.0783 29.2814 47.2566 29.2814 47.3457L28.9844 53.7632C28.9844 54.1197 29.1824 54.3871 29.5784 54.4762C29.6774 54.7436 29.9745 54.8328 30.2715 54.8328L35.123 54.6545C35.42 54.9219 36.0141 54.9219 36.3111 54.6545C36.4101 54.4762 36.5091 54.298 36.5091 54.1197L36.7071 47.9696C36.9052 47.6131 36.8062 47.1674 36.4101 46.9C36.3111 46.8109 36.1131 46.7218 36.0141 46.7218ZM35.024 48.237L34.826 53.0501L30.6675 53.2284L30.8656 48.237H35.024ZM62.4497 46.7218H57.0042C56.6081 46.4544 56.0141 46.6326 55.8161 46.9892C55.717 47.0783 55.717 47.2566 55.717 47.3457L55.42 53.7632C55.42 54.1197 55.618 54.3871 56.0141 54.4762C56.1131 54.7436 56.4101 54.8328 56.7071 54.8328L61.5586 54.6545C61.8557 54.9219 62.4497 54.9219 62.7467 54.6545C62.8458 54.4762 62.9448 54.298 62.9448 54.1197L63.1428 47.9696C63.3408 47.6131 63.2418 47.1674 62.8458 46.9C62.7467 46.8109 62.5487 46.7218 62.4497 46.7218ZM61.4596 48.237L61.2616 53.0501L57.0042 53.2284L57.3012 48.237H61.4596Z" fill="#1C1C1E"></path>
  <path d="M53.2417 46.9002L39.2813 46.7219C38.7863 46.8111 38.4893 47.1676 38.4893 47.5241C38.4893 47.8806 38.8853 48.148 39.2813 48.2372L53.2417 48.4154C53.7368 48.3263 54.0338 47.9698 54.0338 47.6132C53.9348 47.2567 53.6378 46.9002 53.2417 46.9002Z" fill="#1C1C1E"></path>
  <path d="M53.2417 53.2285L39.2813 53.0503C38.7863 53.1394 38.4893 53.4959 38.4893 53.8525C38.4893 54.209 38.8853 54.4764 39.2813 54.5655L53.2417 54.7438C53.7368 54.6547 54.0338 54.2981 54.0338 53.9416C53.9348 53.5851 53.6378 53.3177 53.2417 53.2285ZM53.2417 50.1089L39.2813 49.9307C38.7863 50.0198 38.4893 50.3763 38.4893 50.7329C38.4893 51.0894 38.8853 51.3568 39.2813 51.4459L53.2417 51.6242C53.7368 51.535 54.0338 51.1785 54.0338 50.822C53.9348 50.3763 53.6378 50.1089 53.2417 50.1089Z" fill="#1C1C1E"></path>
</svg>
