<?xml version="1.0" encoding="UTF-8"?>
<svg xmlns="http://www.w3.org/2000/svg" width="90" height="90" viewBox="0 0 90 90" fill="none">
  <path d="M45 90C69.8528 90 90 69.8528 90 45C90 20.1472 69.8528 0 45 0C20.1472 0 0 20.1472 0 45C0 69.8528 20.1472 90 45 90Z" fill="#C6E1CC"></path>
  <mask id="mask0_1585_3650" style="mask-type:luminance" maskUnits="userSpaceOnUse" x="20" y="6" width="37" height="36">
    <path d="M20.91 6.59009H56.7522V41.4362H20.91V6.59009Z" fill="white"></path>
  </mask>
  <g mask="url(#mask0_1585_3650)">
    <path fill-rule="evenodd" clip-rule="evenodd" d="M55.5943 26.1419C55.2474 27.7687 54.3518 29.6339 53.656 31.1725C51.9873 34.8602 47.2017 37.1306 43.7939 38.7402C39.7272 40.6606 36.0074 40.6812 31.6828 40.1045C25.1844 38.8911 21.1725 32.3522 21.8775 25.6278C22.1242 23.2755 22.8629 20.881 23.6233 18.6644C24.7538 15.3701 27.0061 11.0071 29.8566 8.99859C33.3389 6.54561 37.1946 8.70299 40.9724 8.47216C42.0607 8.40602 43.0941 8.0801 44.1507 7.82378C46.5171 7.24912 47.9866 7.60122 49.8663 9.23906C51.1708 10.3767 52.4701 11.6411 53.5214 13.0384C55.1248 15.1703 55.5093 17.5385 55.6933 20.1755C55.8298 22.1296 56.0066 24.2098 55.5943 26.1419ZM56.734 22.2323C56.5843 17.6185 55.8958 13.9528 52.6726 10.6275C50.2475 8.12489 48.0644 5.98405 44.5181 6.74681C42.0917 7.26842 40.1368 7.62051 37.6233 7.24361C35.7924 6.96937 33.9088 6.56146 32.0654 6.97902C28.4294 7.80104 26.4059 11.2635 24.577 14.3331C22.8602 17.2154 21.7891 20.7267 21.1784 24.063C19.7888 31.6507 23.8845 39.6346 31.4513 41.0382C31.4764 41.0423 31.4969 41.0354 31.5206 41.0361C31.5391 41.0409 31.5536 41.0526 31.574 41.0554C35.6744 41.6101 39.2946 41.7637 43.1819 40.0708C46.649 38.5611 51.1313 36.4278 53.5485 33.2858C54.6538 31.8485 55.3305 29.7138 55.9953 28.0326C56.7241 26.1901 56.7973 24.1988 56.734 22.2323Z" fill="#1C1C1E"></path>
  </g>
  <path fill-rule="evenodd" clip-rule="evenodd" d="M32.8087 26.3316C29.5971 24.9142 27.9809 21.266 29.0478 18.0121C30.3286 14.1053 34.2131 13.5253 37.7641 14.4416C45.3658 17.526 40.5683 29.7568 32.8087 26.3316ZM38.0142 13.5618C33.9179 12.5041 29.5904 13.3943 28.1402 17.7697C26.8831 21.5612 28.9537 25.8806 32.7925 27.3332C41.7011 30.7044 46.5813 17.0379 38.0142 13.5618Z" fill="#1C1C1E"></path>
  <path fill-rule="evenodd" clip-rule="evenodd" d="M31.3799 17.1576C30.55 18.3748 30.5919 20.8534 30.9844 22.7073C31.1064 23.2841 31.4731 22.7774 31.3514 22.2028C31.0675 20.862 30.9744 18.9308 31.5945 18.0217C31.8261 17.6815 31.613 16.816 31.3799 17.1576ZM35.1257 16.0989C34.4725 16.0989 34.4718 17.0793 35.1257 17.0793C35.779 17.0793 35.7797 16.0989 35.1257 16.0989Z" fill="#1C1C1E"></path>
  <mask id="mask1_1585_3650" style="mask-type:luminance" maskUnits="userSpaceOnUse" x="20" y="43" width="59" height="43">
    <path d="M20.91 43.5499H78.562V85.1342H20.91V43.5499Z" fill="white"></path>
  </mask>
  <g mask="url(#mask1_1585_3650)">
    <path fill-rule="evenodd" clip-rule="evenodd" d="M59.8659 47.5213C59.9277 47.3781 59.9885 47.234 60.0551 47.1095C60.7022 48.8163 61.3345 50.6369 61.5277 52.534C61.8689 55.8565 61.3787 57.6575 60.0689 57.886C59.9502 57.9075 59.8345 57.9173 59.7218 57.9173C57.16 57.9173 56.0492 52.6065 55.5159 50.0546L55.4149 49.5752C55.5051 49.5869 55.5943 49.6016 55.6836 49.6154C56.0159 49.6663 56.361 49.7183 56.71 49.7183C57.0238 49.7183 57.31 49.6762 57.5865 49.5899C58.2816 49.3722 58.9688 48.8713 59.5218 48.1791C59.6561 48.0124 59.763 47.7624 59.8659 47.5213ZM48.4894 58.3683C48.9247 60.3301 49.3463 62.5693 48.8296 64.3193C48.5561 65.2448 48.1267 65.7144 47.5522 65.7144C46.3502 65.7144 44.7963 63.7213 44.2698 62.7056C43.5179 61.2546 43.0855 59.6271 42.6679 58.0526L42.4375 57.1958C42.5728 57.1928 42.7071 57.1909 42.8394 57.1899C43.5267 57.182 44.1757 57.1762 44.9022 56.8869C45.6228 56.6007 46.2169 56.1595 46.6679 55.5771C46.9061 55.2673 47.0345 54.8889 47.1571 54.5213C47.2257 54.3163 47.2924 54.1193 47.3747 53.9418C47.809 55.3134 48.1267 56.7428 48.4355 58.1281L48.4894 58.3683ZM34.7885 73.436C35.2336 73.436 35.6345 73.3183 35.9796 73.0889C37.5404 72.0477 37.3718 69.486 37.2914 68.2546C37.1336 65.8673 36.4404 63.6232 35.6179 61.1516C35.9502 60.8467 36.4414 60.5663 36.8777 60.3173C37.1336 60.1703 37.3777 60.032 37.5738 59.8987C38.5483 59.236 40.7051 57.7781 40.7051 57.7781C40.8541 57.6762 40.9816 57.5899 41.1012 57.5154C41.1855 57.8183 41.2669 58.1222 41.3492 58.4281C41.9473 60.6507 42.5659 62.9467 43.9845 64.8203C45.1816 66.4007 46.3296 67.2016 47.3963 67.2016C47.8551 67.2016 48.3012 67.0526 48.7228 66.7575C50.7022 65.3722 50.4443 62.4516 50.2894 60.7065C50.0826 58.3683 49.4443 55.6065 48.4894 52.9183C48.6247 52.8428 48.762 52.7703 48.8953 52.6997C49.0983 52.5928 49.2904 52.4899 49.4502 52.3928L49.859 52.1399C50.6238 51.6673 51.3894 51.1958 52.159 50.7311C52.3247 50.6311 52.4963 50.5183 52.6728 50.4016C53.1149 50.1114 53.5708 49.8114 54.0267 49.6438C54.0845 49.8899 54.1443 50.1634 54.209 50.4595C54.8934 53.5585 56.1659 59.3262 59.7865 59.3262C60.0865 59.3262 60.4002 59.286 60.7188 59.2075C62.5424 58.7595 62.812 56.1252 62.9002 55.2605C63.2169 52.1389 62.3159 49.1977 61.262 46.4379L61.4816 46.3791C61.6992 46.3213 61.8983 46.2683 62.0404 46.2173C64.4483 45.3585 66.7983 44.9232 69.0277 44.9232C69.4081 44.9232 69.7894 44.935 70.1698 44.9624C71.862 45.0811 73.2914 45.4703 74.4169 46.1203C76.262 47.184 76.8385 48.9526 77.1581 50.533C77.3296 52.1458 76.76 54.1713 75.4669 56.5526C74.1502 58.9762 71.9708 60.7173 69.861 62.4007L69.2777 62.8673C64.7277 66.5252 59.7247 69.9536 53.9855 73.3497C50.1336 75.6271 45.5571 78.2477 40.8189 80.4144C38.509 81.4703 35.9492 82.335 33.214 82.985C31.662 83.3546 30.014 83.7144 28.4238 83.7144C27.5169 83.7144 26.7208 83.6007 25.9904 83.3654C22.7149 82.3124 21.7885 78.6585 22.5649 75.5928C23.3267 72.586 25.4061 70.2163 27.4689 68.0487C27.6159 67.8938 27.7796 67.7046 27.9532 67.5026C28.2247 67.1879 28.5267 66.835 28.8208 66.5605C29.4306 68.4016 30.1365 70.2948 31.3522 71.6409C32.1345 72.5046 33.5424 73.436 34.7885 73.436ZM35.9238 69.9232C35.8473 70.9801 35.1718 71.7183 34.2796 71.7183C33.9512 71.7183 33.609 71.6213 33.261 71.4301C32.5924 71.0614 32.2257 70.5418 31.8159 69.9036C31.01 68.6487 30.4914 67.2163 30.0698 65.9585C30.2306 65.933 30.3953 65.9144 30.562 65.8948C31.014 65.8438 31.4826 65.7918 31.9208 65.5997C32.7414 65.2409 33.5041 64.6526 34.1287 63.8958C34.4012 63.5663 34.5806 63.1762 34.7228 62.8242C35.4169 64.9752 36.1051 67.4477 35.9238 69.9232ZM78.512 50.3575L78.4992 50.2536C77.9483 47.4546 76.7669 45.7418 74.6708 44.6987C73.1345 43.9369 71.2728 43.5497 69.1355 43.5497C68.6688 43.5497 68.2032 43.5683 67.7443 43.6016C65.3238 43.7771 62.8306 44.3948 60.1228 45.4909C59.2777 45.833 59.1953 46.0007 58.9747 46.4477C58.8973 46.6046 58.8012 46.7997 58.6434 47.0536C58.1473 47.8565 57.3365 48.3065 56.2326 48.3585C55.9404 48.3585 55.6336 48.2673 55.3365 48.1791C55.0375 48.0899 54.7296 47.9977 54.4316 47.9977C54.3924 47.9977 54.3541 47.9997 54.3149 48.0026C53.8355 48.0438 53.312 48.3909 52.8512 48.6967C52.7071 48.7928 52.5718 48.883 52.4483 48.9556C51.5081 49.5085 50.5787 50.0811 49.6502 50.6536L49.3492 50.8399C49.0904 50.9997 48.8022 51.1536 48.5071 51.3114C47.913 51.6291 47.2983 51.9585 46.8365 52.3732C46.4434 52.7281 46.2894 53.1722 46.1414 53.6016C46.0296 53.9262 45.914 54.2614 45.6953 54.5722C44.8953 55.7144 43.7865 55.8056 42.4208 55.8056H41.864C41.161 55.8085 40.8826 55.9987 40.3267 56.3771L37.2894 58.432C37.0071 58.6242 36.6894 58.8144 36.364 59.0095C35.6483 59.4369 34.9071 59.8801 34.3865 60.4281C34.0208 60.8124 33.8443 61.2987 33.6728 61.7673C33.513 62.2075 33.3473 62.6634 33.0247 63.0487C32.4061 63.7909 31.7385 64.2546 30.9247 64.5095C30.6414 64.5977 30.312 64.5977 29.9914 64.5977C29.6522 64.5987 29.3306 64.5987 29.0551 64.6948C28.4375 64.9114 27.862 65.5712 27.3551 66.1536C27.1973 66.334 27.0473 66.5056 26.91 66.6487C25.6267 67.9683 24.6473 69.085 23.8257 70.1624C22.1424 72.3713 20.514 75.9144 20.9963 79.235C21.2669 81.1075 22.1787 82.6222 23.7032 83.7369C24.9708 84.6644 26.61 85.133 28.5767 85.134C31.6032 85.134 34.862 84.0536 37.2424 83.2644C42.0836 81.6595 46.6414 79.0987 51.0483 76.6222L51.464 76.3879C58.3385 72.5252 64.2973 68.5703 69.6787 64.2958L70.2973 63.8065C72.7551 61.8654 75.2983 59.8575 76.7924 56.9918C78.1757 54.3369 78.7424 52.1869 78.512 50.3575Z" fill="#1C1C1E"></path>
  </g>
</svg>
