<?xml version="1.0" encoding="UTF-8"?>
<svg xmlns="http://www.w3.org/2000/svg" width="90" height="90" viewBox="0 0 90 90" fill="none">
  <path d="M45 90C69.8528 90 90 69.8528 90 45C90 20.1472 69.8528 0 45 0C20.1472 0 0 20.1472 0 45C0 69.8528 20.1472 90 45 90Z" fill="#BCDDE4"></path>
  <path d="M73.0108 14.1149C68.4563 10.9466 61.7237 15.9961 58.3573 18.8674C53.6048 22.8278 50.0405 27.9763 47.9613 33.7189C43.5058 31.3426 38.0603 31.9367 34.1989 35.006C31.2286 37.2832 29.0504 40.3525 26.3771 42.9268C22.9118 46.3921 17.9613 47.9763 13.2088 47.0852C12.9118 46.9862 12.5157 47.1842 12.4167 47.3822C12.0207 47.5803 11.7237 47.9763 11.9217 48.4713C11.9217 48.5704 12.0207 48.6694 12.1197 48.7684L19.7435 57.3822C16.9712 58.5704 17.5652 64.709 18.8524 66.7882C21.0306 70.5506 26.6741 71.2436 29.2484 67.5803C30.1395 68.3723 31.0306 69.1644 31.8227 70.0555C33.7038 72.2337 35.9811 74.0159 38.5553 75.402C38.8524 75.6001 39.3474 75.501 39.5454 75.204C39.8425 75.105 40.0405 74.808 39.9415 74.511C39.3474 65.303 49.4464 61.0456 53.2088 53.9169C55.684 49.2634 55.9811 43.3228 53.3078 38.6694C58.9514 34.907 65.189 31.4416 70.2385 26.8872C73.1098 24.3129 77.8623 17.5803 73.0108 14.1149ZM27.7633 66.8872C25.7831 69.6595 21.5256 68.7684 20.0405 66.0951C19.5454 65.204 18.3573 58.4713 20.7336 58.7684L22.7138 61.0456C21.5256 61.7387 21.0306 63.2238 21.6246 64.4119C22.5157 66.1941 24.5949 66.5902 26.3771 66.1941C26.6741 66.1941 26.8722 65.8971 26.9712 65.6991C27.2682 65.9961 27.6642 66.3921 27.9613 66.6892C27.8623 66.7882 27.7633 66.7882 27.7633 66.8872ZM23.8029 62.3327H23.9019L25.7831 64.5109L25.9811 64.709C25.09 65.006 24.0999 64.808 23.4068 64.2139C22.8128 63.6199 22.7138 62.4317 23.8029 62.3327ZM38.1593 73.6199C35.8821 72.0357 33.8029 70.1545 31.9217 68.1743C30.0405 66.2931 28.0603 64.709 26.3771 62.7288L14.0999 48.9664C15.8821 49.1644 17.7633 49.0654 19.5454 48.5704C19.5454 48.6694 19.6444 48.7684 19.7435 48.8674C26.6741 55.105 33.1098 61.8377 39.2484 68.7684C38.5553 70.2535 38.1593 71.9367 38.1593 73.6199ZM40.0405 67.2832C34.0999 60.5506 27.8623 54.1149 21.2286 48.0753C21.8227 47.8773 22.4167 47.5803 23.0108 47.2832L23.1098 47.3822C26.4761 49.7585 29.3474 52.8278 32.3177 55.7981L41.6246 65.006C41.0306 65.6991 40.5355 66.4911 40.0405 67.2832ZM53.4068 47.1842C53.1098 51.5406 50.7336 55.105 47.7633 58.2733C46.0801 60.0555 44.1989 61.8377 42.6147 63.7189L32.7138 53.8179C30.1395 51.1446 27.4662 48.6694 24.4959 46.3921C26.2781 45.303 27.8623 43.9169 29.2484 42.3327C31.8227 39.5605 34.2979 36.2931 37.8623 34.709C41.6246 33.1248 45.9811 33.8179 49.0504 36.3921C52.2187 39.0654 53.8029 43.1248 53.4068 47.1842ZM52.2187 37.4812C51.8227 36.8872 51.4266 36.3921 50.9316 35.8971C50.4365 35.402 49.8425 34.907 49.2484 34.5109C49.3474 34.4119 49.3474 34.3129 49.4464 34.2139C49.5454 33.8179 49.7435 33.4218 49.9415 33.0258C51.3276 33.9169 52.6147 35.105 53.6048 36.4911L52.2187 37.4812ZM65.288 28.7684C61.8227 31.1446 58.3573 33.5208 54.892 35.7981C53.7038 34.1149 52.3177 32.7288 50.6345 31.7387C52.2187 28.1743 54.4959 25.006 57.1692 22.2337C58.9514 20.4515 60.8326 18.9664 62.9118 17.5803C64.0999 16.7882 65.387 16.0951 66.6741 15.501C66.7732 15.6991 66.9712 15.7981 67.1692 15.8971C69.6444 16.5902 71.5256 18.6694 72.0207 21.2436C72.0207 21.4416 72.2187 21.6397 72.4167 21.7387C70.4365 24.4119 68.0603 26.7882 65.288 28.7684ZM73.3078 19.8575C72.6147 17.5803 70.9316 15.7981 68.8524 14.808C69.7435 14.709 70.5355 14.808 71.3276 15.204C73.6048 16.2931 74.0009 17.9763 73.3078 19.8575Z" fill="#1C1C1E"></path>
</svg>
