<?xml version="1.0" encoding="UTF-8"?>
<svg xmlns="http://www.w3.org/2000/svg" width="90" height="90" viewBox="0 0 90 90" fill="none">
  <path d="M45 90C69.8528 90 90 69.8528 90 45C90 20.1472 69.8528 0 45 0C20.1472 0 0 20.1472 0 45C0 69.8528 20.1472 90 45 90Z" fill="#FAE5B8"></path>
  <path d="M75.1306 37.5C72.0537 23.8462 59.5537 14.3269 45.5152 15C45.5152 14.6154 45.1306 14.4231 44.8422 14.4231C33.0152 14.6154 21.6691 21.8269 16.9576 32.8846C15.0345 37.4039 14.2652 42.2116 14.6499 47.0192C14.6499 47.3077 14.6499 47.5 14.746 47.7885C15.3229 55 18.496 61.7308 23.6883 66.8269C26.5729 69.4231 29.8422 71.4423 33.496 72.7885C33.5922 72.8846 33.7845 72.8846 33.9768 72.9808C36.7652 74.0385 39.6499 74.9039 42.4383 75.7692C45.2268 76.6346 48.7845 75.3846 51.5729 74.8077C55.1306 74.1346 58.5922 72.8846 61.8614 71.25C67.6306 68.0769 70.8999 63.1731 73.1114 57.1154C75.2268 50.5769 76.5729 44.1346 75.1306 37.5ZM44.8422 34.8077L45.3229 24.2308L52.8229 21.8269L53.0152 21.7308C53.2076 21.7308 53.496 21.6346 53.5922 21.4423C54.3614 20.3846 54.6499 19.0385 54.4576 17.7885C54.4576 17.6923 54.4576 17.5962 54.3614 17.5962C60.3229 19.2308 65.7076 22.8846 69.3614 28.0769H69.2652L67.246 28.75C66.8614 28.5577 66.3806 28.75 66.1883 29.1346C66.1883 29.1346 66.1883 29.2308 66.0922 29.3269C65.4191 32.0192 65.0345 34.7116 64.8422 37.5C64.8422 37.5962 64.8422 37.6923 64.8422 37.7885L53.3999 43.0769C51.4768 39.8077 47.7268 37.4039 44.8422 35.0962V35C44.8422 34.9039 44.8422 34.8077 44.8422 34.8077ZM35.5152 17.6923L35.7076 19.7116C35.4191 20.0962 35.5152 20.5769 35.8037 20.8654L35.8999 20.9616C38.3037 22.2116 40.8037 23.3654 43.3999 24.3269C43.496 24.3269 43.5922 24.3269 43.6883 24.3269L43.2076 34.7116C43.2076 34.8077 43.2076 34.9039 43.2076 34.9039C40.8999 37.7885 38.3037 40.4808 35.4191 42.8846L35.3229 42.9808L35.1306 43.0769H34.9383C31.4768 43.2692 27.9191 43.0769 24.5537 42.4039L23.0152 34.3269C23.0152 34.2308 23.0152 34.2308 22.9191 34.1346C22.9191 33.9423 22.8229 33.6539 22.6306 33.5577C21.6691 32.6923 20.4191 32.3077 19.0729 32.3077C18.9768 32.3077 18.8806 32.3077 18.8806 32.3077C22.3422 25.4808 28.3037 20.1923 35.5152 17.6923ZM16.7652 50.9616C16.8614 50.9616 16.9576 50.9616 16.9576 50.9616L19.0729 51.0577C19.3614 51.3462 19.9383 51.4423 20.2268 51.0577L20.3229 50.9616C21.8614 48.75 23.2076 46.4423 24.3614 44.0385C27.8229 44.7116 31.4768 45 35.0345 44.8077C36.3806 47.5962 37.5345 50.5769 38.3999 53.5577V53.6539L34.1691 62.5C34.0729 62.4039 33.9768 62.3077 33.7845 62.3077L25.3229 60.4808H25.1306C24.9383 60.3846 24.6499 60.3846 24.4576 60.4808C23.3999 60.9616 22.5345 61.8269 22.0537 62.8846C19.4576 59.4231 17.6306 55.2885 16.7652 50.9616ZM58.5922 60.6731L53.8806 67.8846C53.8806 67.9808 53.7845 67.9808 53.7845 68.0769C53.5922 68.1731 53.496 68.4616 53.496 68.6539C53.5922 69.9039 54.1691 71.1539 55.1306 72.0192C52.3422 72.8846 49.4576 73.4616 46.5729 73.9423C43.496 74.4231 40.8999 73.6539 38.1114 72.6923L38.9768 70.8654C39.4576 70.6731 39.6499 70.2885 39.4576 69.8077C39.4576 69.7116 39.4576 69.7116 39.3614 69.6154C38.1114 67.5 36.6691 65.5769 35.1306 63.6539L35.2268 63.5577L39.6499 54.4231C39.6499 54.3269 39.746 54.3269 39.746 54.2308H49.5537C49.6499 54.2308 49.8422 54.2308 49.9383 54.1346C50.0345 54.1346 50.1306 54.1346 50.2268 54.1346C52.7268 56.25 55.4191 59.2308 58.5922 60.5769V60.6731ZM72.9191 52.0192C72.1499 54.9039 71.1883 57.5962 69.8422 60.2885L68.496 58.8462C68.496 58.3654 68.1114 57.9808 67.6306 57.9808H67.5345C65.2268 58.3654 63.0152 58.9423 60.8037 59.7116C60.7076 59.6154 60.6114 59.6154 60.5152 59.6154C57.0537 58.75 54.1691 55.3846 51.4768 53.1731C51.3806 53.0769 51.3806 53.0769 51.2845 53.0769C52.4383 50.3846 53.2076 47.5962 53.7845 44.7116L65.6114 39.2308L69.8422 45.8654C69.8422 45.9616 69.9383 45.9616 69.9383 45.9616C70.0345 46.1539 70.1306 46.3462 70.4191 46.4423C71.5729 46.8269 72.9191 46.8269 74.0729 46.3462C73.7845 48.2692 73.3999 50.1923 72.9191 52.0192Z" fill="#1C1C1E"></path>
</svg>
