<?xml version="1.0" encoding="UTF-8"?>
<svg xmlns="http://www.w3.org/2000/svg" width="90" height="90" viewBox="0 0 90 90" fill="none">
  <path d="M45 90C69.8528 90 90 69.8528 90 45C90 20.1472 69.8528 0 45 0C20.1472 0 0 20.1472 0 45C0 69.8528 20.1472 90 45 90Z" fill="#C6E1CC"></path>
  <path d="M15.8719 46.7298C15.548 53.0315 21.2164 62.5143 25.5999 66.7164C31.5216 72.3926 37.9872 73.3589 46.0579 73.1424C61.4558 72.7288 71.1733 60.8679 71.2913 46.0223" stroke="#1C1C1E" stroke-width="1.45631"></path>
  <path fill-rule="evenodd" clip-rule="evenodd" d="M67.704 43.7385C67.0935 43.3669 67.0704 42.5642 66.2593 42.126C65.5476 41.7422 64.2805 41.7632 63.4904 41.6774C63.7628 41.3671 63.7352 41.0725 63.9211 40.7773C63.2126 40.6354 62.343 40.9429 61.6552 40.7853C60.5316 40.529 60.5607 40.1581 60.0508 39.8961C59.5335 39.6303 59.517 39.244 58.3644 39.0937C57.3862 38.9662 57.0051 40.0737 55.7156 39.3046C55.792 39.0892 55.8637 38.9344 55.9513 38.7274C54.9924 37.5128 52.6805 37.6098 51.475 37.4417C51.0379 37.3804 49.8787 37.3965 49.5316 37.3552C48.7488 37.2624 48.0869 36.6222 46.9171 36.9149C47.0183 37.3034 46.8205 37.8255 46.8789 38.138C46.0559 37.7573 46.0359 38.1443 45.7414 37.2557C43.7521 38.491 43.9976 37.4326 42.1281 37.4673C40.1072 37.504 40.1741 39.1407 37.9106 38.4157C38.0213 38.2595 38.2149 38.1779 38.3431 38.0437C36.924 36.4856 35.2044 39.2216 33.6567 39.0531C33.6378 38.8426 33.6595 38.6164 33.6217 38.4076C32.3833 37.9874 30.8027 38.3306 31.0002 39.8765C30.1551 40.2071 30.0448 40.1693 29.6199 39.6587C28.5538 39.2573 27.5438 39.7441 27.0079 40.6848C26.4062 39.8863 25.3856 39.9546 24.5031 40.4652C24.7521 41.1948 24.6106 41.7639 24.1977 42.2262C24.5402 41.7569 21.9156 42.8471 22.2742 42.8471C21.3149 42.9501 19.4139 42.2546 19.6664 44.4354C19.072 43.9353 18.7715 44.2575 18.2206 44.0933C18.4952 45.4914 14.1142 46.6293 17.2887 47.9889L17.4049 47.9847C19.7963 50.9841 30.6013 53.2483 43.5749 53.2483C58.3035 53.2483 70.2432 48.2176 70.2432 46.7312C70.2432 46.5193 70.1265 46.2868 69.9083 46.0398C72.5141 45.5345 68.0973 43.9777 67.704 43.7385Z" stroke="#1C1C1E" stroke-width="1.45631"></path>
  <path d="M24.7204 44.2156C24.9042 43.4472 25.8502 43.2084 26.4351 44.1785C27.076 43.3698 28.0556 43.5061 28.1505 44.3302M31.2379 42.0433C31.8561 41.7617 32.2378 41.4279 32.5103 42.2548C33.5376 42.0527 35.586 42.0853 34.6681 43.1864M37.5264 41.2428C38.0303 41.2964 38.3284 41.186 38.7665 41.4974C38.714 41.7461 38.6573 41.8073 38.562 42.0203C39.6144 41.7023 41.5078 42.2087 39.9272 43.0724M44.3866 41.1286C45.299 40.7678 45.7795 40.8953 45.3585 41.8203C47.1643 41.3362 48.4132 43.1827 46.2162 42.9582M52.6191 42.1577C53.2513 42.0004 53.7797 41.9195 54.2354 42.3892C54.096 42.4957 53.8536 42.6886 53.703 42.821C55.2409 42.6578 57.1206 44.1904 54.7912 44.4443M60.0509 43.0723C60.5447 43.4722 61.242 43.3465 60.5598 44.1867C62.3302 44.1195 63.4555 46.0657 61.1944 46.045M48.7314 45.2447C48.2866 45.4962 47.9454 45.4685 48.2001 46.2531C48.5948 46.2187 49.0879 46.4727 49.5204 46.4054C49.4157 47.9482 51.17 47.9009 52.1615 47.0744M54.5628 46.8454C54.5169 47.1308 54.4035 47.3175 54.4662 47.6226C54.9838 47.5157 55.3761 47.7662 55.9375 47.4289C56.453 48.3031 58.2784 48.2414 57.993 47.1886M39.6955 45.3145C39.6573 45.6185 39.6923 45.9618 39.7077 46.2637C40.4663 46.3011 40.818 46.6223 41.5527 46.1583C42.3537 47.3284 44.3402 46.7799 43.9403 45.5506M31.2379 46.8454C31.2432 47.9101 32.2081 48.0355 32.9817 47.2058C34.0114 47.7756 35.488 47.3231 34.8964 46.0451M25.5211 47.1885C25.5021 47.4844 25.5179 47.7933 25.5354 48.0861C26.5703 48.104 29.6965 48.532 28.9512 47.1885M20.0326 46.1593C20.0179 47.6835 21.6258 47.5784 21.8787 46.1936C22.7133 46.9277 23.7314 46.7351 23.8057 45.5877M36.8403 49.4753C36.1605 50.6573 37.0809 50.8772 38.0787 50.3155C38.6009 51.1087 39.7272 50.6793 40.2704 49.8185" stroke="#1C1C1E" stroke-width="0.485437"></path>
  <path d="M46.5592 50.3902C46.4306 50.6893 46.314 50.9702 46.3427 51.3124C47.0957 51.4129 47.6466 51.464 48.2802 50.945C49.0749 51.3551 49.8317 50.9951 49.9893 50.047" stroke="#1C1C1E" stroke-width="0.485437"></path>
  <path d="M63.9383 45.2448C64.4178 45.4321 64.8507 45.3201 64.4048 46.2545C66.2397 46.9171 64.2697 48.0659 63.1381 47.9888" stroke="#1C1C1E" stroke-width="0.485437"></path>
  <path d="M50.8922 26.9426C50.5228 26.6386 50.055 26.4913 49.5836 26.5301H42.4914L49.1403 18.8884L49.7735 18.172L50.1746 17.6727C50.2872 17.5118 50.3796 17.3368 50.449 17.1517C50.5279 16.9514 50.5709 16.7381 50.5756 16.5221C50.6286 16.0155 50.3893 15.5235 49.9635 15.263C49.4086 15.0008 48.8002 14.8814 48.1905 14.9156H39.9163C39.4759 14.8904 39.0411 15.0291 38.692 15.3064C38.4002 15.5588 38.2369 15.9349 38.2488 16.3267C38.2488 16.9129 38.4388 17.2602 38.8187 17.4122C39.3667 17.5772 39.9369 17.6507 40.5073 17.6293H45.8264C45.5942 17.9549 45.2987 18.324 44.9399 18.7799L43.5468 20.4081L41.7315 22.579L39.6208 25.0539C38.8609 25.9222 38.3615 26.5157 38.1221 26.834C37.6248 27.4902 37.6886 28.4264 38.2699 29.005C38.7071 29.3184 39.2374 29.4644 39.7685 29.4174H49.6047C50.0727 29.456 50.5381 29.317 50.9133 29.0267C51.1925 28.7664 51.3466 28.3936 51.3355 28.0063C51.3453 27.6025 51.1835 27.2142 50.8922 26.9426Z" fill="#1C1C1E"></path>
</svg>
