<?xml version="1.0" encoding="UTF-8"?>
<svg xmlns="http://www.w3.org/2000/svg" width="90" height="90" viewBox="0 0 90 90" fill="none">
  <path d="M45 90C69.8528 90 90 69.8528 90 45C90 20.1472 69.8528 0 45 0C20.1472 0 0 20.1472 0 45C0 69.8528 20.1472 90 45 90Z" fill="#FAE5B8"></path>
  <path d="M73.7324 32.9011C71.8937 27.0947 68.6034 21.5786 63.3775 18.2882C57.5711 14.6108 50.2163 14.2237 43.6356 14.9011C31.055 16.256 17.6034 23.5141 14.7969 36.8689C13.4421 43.3528 14.9905 50.514 19.8292 55.256C24.3775 59.7076 30.8614 61.5463 37.055 60.2882C33.6679 64.256 30.184 68.3205 27.7646 72.9657C27.5711 73.1592 27.4743 73.3528 27.4743 73.5463C27.4743 74.7076 28.3453 75.7721 29.6034 75.7721C29.8937 75.9657 30.2808 75.9657 30.5711 75.6753C34.5388 71.4173 38.4098 67.1592 42.2808 62.8044C46.2485 63.385 45.6679 69.4818 47.0227 72.1915C48.184 74.3205 50.313 75.6753 52.6356 75.9657C58.1517 76.8366 64.055 74.4173 68.1195 70.9334C72.7646 66.9657 75.6679 61.3528 76.055 55.3528C76.6356 47.8044 75.9582 40.1592 73.7324 32.9011ZM29.6034 74.3205C29.313 74.3205 29.0227 74.127 28.9259 73.8366L29.313 73.0624C29.5066 73.3528 29.7001 73.5463 29.9904 73.7399L29.6034 74.3205ZM55.4421 43.4495C53.9905 42.9657 52.3453 41.2237 53.4098 39.7721C53.9905 40.8366 54.8614 41.8044 55.9259 42.4818C56.6034 42.8689 57.2808 43.256 57.9582 43.4495C57.184 43.7399 56.2163 43.7399 55.4421 43.4495ZM55.4421 45.0947L54.3775 46.3528C53.313 46.256 52.4421 45.4818 52.2485 44.514L52.8292 43.8366C53.0227 44.0302 53.313 44.2237 53.5066 44.4173C54.184 44.7076 54.7646 44.9011 55.4421 45.0947ZM57.2808 41.6108C53.0227 39.2882 53.2163 34.3528 56.313 31.256C56.5066 32.2237 57.0872 32.9979 57.9582 33.4818C59.7001 34.3528 61.9259 33.8689 63.7646 32.9979C64.4421 35.127 66.6679 36.385 68.8937 35.9011C68.6034 36.6753 68.2163 37.4495 67.8292 38.127C65.6034 41.514 61.1517 43.6431 57.2808 41.6108ZM65.2163 32.2237C65.6034 31.9334 65.6034 31.4495 65.313 31.1592C65.0227 30.7721 64.5388 30.7721 64.2485 31.0624C63.2808 31.5463 62.313 31.9334 61.2485 32.127C60.7646 32.2237 60.184 32.3205 59.6034 32.2237C58.8292 32.127 56.7969 31.4495 58.1517 30.1915C58.3453 29.9979 58.4421 29.8044 58.3453 29.6108C61.4421 27.7721 65.4098 26.9979 68.9905 26.8044C69.6679 29.127 69.7646 31.5463 69.3775 33.9657C68.1195 34.8366 66.3775 34.4495 65.6034 33.1915C65.5066 32.9011 65.313 32.6108 65.2163 32.2237ZM36.8614 58.7399C31.1517 59.9979 25.1517 58.256 20.8937 54.1915C16.4421 49.8366 15.0872 43.256 16.2485 37.3528C18.9582 24.4818 32.0227 17.6108 44.0227 16.3528C50.0227 15.7721 56.5066 16.0624 61.8292 19.0624C64.4421 20.6108 66.6679 22.7399 68.4098 25.256C63.2808 25.6431 57.184 27.0947 54.0872 31.3528C52.6356 33.2882 52.055 35.8044 52.7324 38.2237H52.6356C51.3775 39.2882 51.0872 41.0302 51.9582 42.385L51.184 43.256C50.8937 43.3528 50.7001 43.5463 50.7001 43.8366L38.5066 58.4495L37.7324 59.3205C37.7324 58.9334 37.2485 58.6431 36.8614 58.7399ZM30.5711 71.6108C30.5711 71.4173 30.5711 71.2237 30.4743 71.0302C33.2808 66.5786 36.8614 62.7076 40.2485 58.6431L51.0872 45.7721C51.5711 46.6431 52.3453 47.3205 53.2163 47.6108C46.2485 56.127 38.7001 64.4495 31.1517 72.5786C30.7646 72.5786 30.4743 72.2882 30.4743 71.9011C30.5711 71.8044 30.5711 71.7076 30.5711 71.6108ZM74.6034 52.5463C74.5066 58.7399 72.6679 64.5463 68.0227 68.9011C63.9582 72.7721 55.6356 76.8366 50.1195 73.5463C45.8614 71.0302 48.184 63.2882 43.2485 61.5463C47.8937 56.4173 52.3453 51.1915 56.7001 45.7721C56.8937 45.5786 56.8937 45.2882 56.8937 45.0947C58.2485 44.9979 59.5066 44.6108 60.5711 43.8366C63.2808 43.7399 65.7969 42.5786 67.6356 40.6431C70.3453 37.8366 71.313 34.0624 71.1195 30.2882C71.5066 31.256 71.8937 32.2237 72.184 33.1915C74.0227 39.5786 74.7969 46.0624 74.6034 52.5463Z" fill="#1C1C1E"></path>
  <path d="M33.2808 42.6753C32.9905 42.5785 32.7002 42.5785 32.4099 42.7721C29.5066 43.1592 26.8937 45.0946 26.5066 48.1914C26.0228 51.2882 28.055 54.1914 31.055 54.7721C34.1518 55.2559 37.055 53.2237 37.5389 50.1269C38.0228 47.0301 36.2808 43.9333 33.2808 42.6753ZM32.3131 53.3204C29.9905 53.4172 28.055 51.6753 27.9583 49.3527C27.9583 49.2559 27.9583 49.2559 27.9583 49.1592C28.055 46.5463 30.0873 44.4172 32.7002 44.3204C32.797 44.3204 32.8937 44.3204 32.8937 44.2237C34.4421 44.9979 35.6034 46.3527 35.9905 48.0946C36.4744 50.4172 35.1195 52.643 32.797 53.2237C32.7002 53.3204 32.5066 53.3204 32.3131 53.3204ZM30.6679 27.385C30.3776 27.2882 30.0873 27.2882 29.797 27.4817C26.8937 27.8688 24.2808 29.8043 23.8937 32.9011C23.4099 35.9979 25.4421 38.9011 28.4421 39.4817C31.5389 39.9656 34.4421 37.9333 34.926 34.9333C35.4099 31.7398 33.6679 28.643 30.6679 27.385ZM29.7002 38.0301C27.3776 38.1269 25.4421 36.385 25.3454 34.0624C25.3454 33.9656 25.3454 33.9656 25.3454 33.8688C25.4421 31.2559 27.4744 29.1269 30.0873 29.0301C30.1841 29.0301 30.2808 29.0301 30.2808 28.9333C31.8292 29.7075 32.9905 31.0624 33.3776 32.8043C33.8615 35.1269 32.4099 37.3527 30.1841 37.8366C30.0873 38.0301 29.8937 38.0301 29.7002 38.0301ZM44.9905 20.0301C44.7002 19.9333 44.4099 19.9333 44.1195 20.1269C41.2163 20.514 38.6034 22.4495 38.2163 25.5462C37.7325 28.643 39.7647 31.5462 42.7647 32.1269C45.8615 32.6108 48.7647 30.5785 49.2486 27.5785C49.7324 24.385 47.9905 21.1914 44.9905 20.0301ZM44.0228 30.6753C41.7002 30.7721 39.7647 29.0301 39.6679 26.7075C39.6679 26.6108 39.6679 26.6108 39.6679 26.514C39.7647 23.9011 41.797 21.7721 44.4099 21.6753C44.5066 21.6753 44.6034 21.6753 44.6034 21.5785C46.1518 22.3527 47.3131 23.7075 47.7002 25.4495C48.1841 27.7721 46.8292 29.9979 44.5066 30.5785C44.4099 30.6753 44.2163 30.6753 44.0228 30.6753ZM66.2808 49.9333C64.4421 49.5463 62.5066 50.3204 61.3454 51.6753C60.6679 52.643 60.1841 53.7075 60.0873 54.8688C59.797 57.5785 59.9905 59.3204 57.1841 60.9656C55.3454 62.0301 52.926 62.7075 52.3454 65.0301C51.8615 66.5785 52.7324 68.3204 54.2808 68.8043C54.3776 68.9979 54.6679 69.1914 54.9583 69.0946C60.0873 68.514 64.7325 65.8043 67.7325 61.643C70.3454 58.2559 72.3776 51.0946 66.2808 49.9333ZM64.6357 63.0946C62.1195 65.514 58.926 67.0624 55.4421 67.5463C55.3454 67.5463 55.2486 67.4495 55.1518 67.4495C51.9583 66.8688 54.8615 64.0624 55.8292 63.4817C56.5066 63.0946 57.2808 62.8043 58.055 62.4172C59.2163 61.9333 60.0873 61.0624 60.8615 60.0946C62.6034 57.2882 60.4744 50.1269 66.1841 51.6753C71.8937 53.2237 67.055 60.6753 64.6357 63.0946Z" fill="#1C1C1E"></path>
</svg>
