<?xml version="1.0" encoding="UTF-8"?>
<svg xmlns="http://www.w3.org/2000/svg" width="90" height="90" viewBox="0 0 90 90" fill="none">
  <path d="M45 90C69.8528 90 90 69.8528 90 45C90 20.1472 69.8528 0 45 0C20.1472 0 0 20.1472 0 45C0 69.8528 20.1472 90 45 90Z" fill="#C6E1CC"></path>
  <mask id="mask0_1893_8777" style="mask-type:luminance" maskUnits="userSpaceOnUse" x="20" y="18" width="51" height="54">
    <path d="M20 18H70.5945V71.5384H20V18Z" fill="white"></path>
  </mask>
  <g mask="url(#mask0_1893_8777)">
    <path fill-rule="evenodd" clip-rule="evenodd" d="M59.8864 68.153C55.2122 72.5185 50.0077 67.8763 44.7761 68.094C42.2735 68.1976 40.071 69.5069 37.6855 70.1011C33.4177 71.1637 30.9035 68.0814 28.7803 64.8637C25.1939 59.4279 21.8784 53.5392 21.4545 46.9043C21.0306 40.2559 23.9261 31.9227 31.2926 30.5601C36.5697 29.5837 40.61 33.1101 45.6258 33.4885C45.7119 33.5185 45.8116 33.5311 45.9277 33.5156C47.3677 33.4963 48.7777 33.1701 50.1751 32.7443C50.8448 32.5701 51.4961 32.3495 52.1348 32.1008C55.1077 31.0759 58.0555 30.0076 61.1464 30.8514C69.5455 33.145 70.0439 43.5908 68.4539 50.5672C67.0903 56.5498 64.46 63.8814 59.8864 68.153ZM37.6245 22.6953C37.8984 21.7111 38.2593 20.663 38.8235 19.8172C41.4655 21.9588 43.91 25.3692 44.779 28.8414C43.2558 26.004 40.7174 23.8217 37.6245 22.6953ZM57.0606 19.4766C57.9374 22.5492 57.1855 26.4124 54.92 28.7253C52.8287 30.8611 49.61 31.5811 46.7058 32.0001C46.7174 31.9401 46.7358 31.885 46.73 31.8153C46.2868 25.7892 51.0742 20.2411 57.0606 19.4766ZM62.4577 29.8082C60.2058 28.9527 58.0806 29.0969 55.9874 29.5934C56.1122 29.4608 56.2506 29.3466 56.3677 29.2034C58.6748 26.3863 59.4732 22.1737 58.3226 18.7372C58.3013 18.6734 58.2645 18.6308 58.2335 18.5805C58.2045 18.2572 57.9906 17.9688 57.5697 18.0027C52.1329 18.4411 47.4103 22.3546 45.8503 27.3937C44.6261 23.7424 41.9048 20.3417 39.0326 18.2079C38.8206 18.0501 38.6155 18.053 38.4413 18.1353C38.421 18.143 38.4026 18.1576 38.3822 18.1682C38.3406 18.1943 38.301 18.2195 38.2661 18.2543C38.2381 18.2785 38.2081 18.2882 38.181 18.3182C37.0855 19.5463 36.5155 21.3801 36.0984 22.9353C36.0287 23.1937 36.1061 23.4008 36.2445 23.5527C36.3248 23.6582 36.4293 23.7511 36.589 23.8005C40.4919 24.9917 43.4039 28.0585 44.4935 31.9459C40.1542 31.223 36.4584 28.4834 31.7629 29.0669C27.2339 29.6292 23.7093 32.755 21.8281 36.8214C16.9758 47.3069 22.5713 59.8895 29.4151 68.1443C32.9997 72.4672 36.3306 71.9979 41.239 70.3682C44.7974 69.1866 47.2119 69.8688 50.6716 70.7369C52.5916 71.2188 54.7468 71.7211 56.7345 71.4076C61.5016 70.6547 64.5771 64.8608 66.2929 60.9017C68.8187 55.0721 70.7687 49.0847 70.5829 42.6608C70.429 37.3343 67.6874 31.794 62.4577 29.8082Z" fill="#1C1C1E"></path>
  </g>
  <path fill-rule="evenodd" clip-rule="evenodd" d="M32.8623 34.6816C28.1165 36.6355 25.7184 42.6162 26.5178 47.4404C26.6659 48.3307 28.0207 47.9523 27.8736 47.0658C27.2146 43.0884 29.2604 37.6739 33.2359 36.0375C34.0613 35.6978 33.6994 34.3371 32.8623 34.6816ZM27.4518 50.345C26.5469 50.345 26.546 51.7512 27.4518 51.7512C28.3566 51.7512 28.3576 50.345 27.4518 50.345Z" fill="#1C1C1E"></path>
</svg>
