<?xml version="1.0" encoding="UTF-8"?>
<svg xmlns="http://www.w3.org/2000/svg" width="90" height="90" viewBox="0 0 90 90" fill="none">
  <path d="M45 90C69.8528 90 90 69.8528 90 45C90 20.1472 69.8528 0 45 0C20.1472 0 0 20.1472 0 45C0 69.8528 20.1472 90 45 90Z" fill="#FAE5B8"></path>
  <path d="M70.9197 13.9278C69.1375 13.0367 67.0583 13.1357 65.2761 14.0268C65.1771 14.0268 65.1771 14.1258 65.0781 14.1258C64.7811 14.2248 64.4841 14.4228 64.4841 14.8188L60.5237 67.7891C60.5237 67.7891 60.5237 67.7891 60.5237 67.8882C60.4247 68.0862 60.5237 68.3832 60.7217 68.5812L65.6722 75.2149C65.6722 75.3139 65.7712 75.3139 65.8702 75.4129C66.1672 75.7099 66.6623 75.8089 66.9593 75.5119L67.0583 75.4129V75.3139C68.6425 72.9377 70.5237 70.7594 72.6029 68.7792C72.8999 68.4822 72.9989 68.0862 72.7019 67.6901L71.9098 14.8188C71.9098 14.3238 71.5138 13.9278 71.0187 13.9278H70.9197ZM65.4742 23.5317C65.5732 23.5317 65.6722 23.4327 65.6722 23.4327C65.8702 37.2941 65.0781 51.0565 63.395 64.8188C63.395 64.9179 63.395 65.0169 63.395 65.1159L62.2068 66.7L65.4742 23.5317ZM67.8504 64.2248C67.8504 64.3238 67.8504 64.3238 67.8504 64.4228L66.3653 66.304L65.1771 64.8188L65.0781 64.7198C66.8603 50.8585 67.5534 36.9971 67.3554 23.0367C67.3554 22.9377 67.3554 22.9377 67.3554 22.8386C67.5534 22.8386 67.7514 22.8386 67.9494 22.8386C67.8504 36.7 67.6524 50.4624 67.8504 64.2248ZM68.8405 70.3634C67.5534 69.2743 65.6722 69.3733 64.3851 70.4624L62.9989 68.6802L64.5831 66.502L65.7712 68.0862C66.0682 68.4822 66.4643 68.4822 66.8603 68.2842C66.9593 68.1852 66.9593 68.1852 67.0583 68.0862C67.1573 67.9872 67.2563 67.9872 67.3554 67.7891L69.1375 65.6109L70.9197 68.1852C70.1276 68.8783 69.4346 69.6703 68.8405 70.3634ZM71.2167 65.7099L69.9296 64.0268C69.8306 63.8287 69.6326 63.7297 69.4346 63.7297C69.2365 50.3634 69.4346 36.9971 69.6326 23.6307C69.8306 23.7297 69.9296 23.9278 70.1276 24.0268C70.2266 24.1258 70.4247 24.2248 70.6227 24.3238C70.7217 38.0862 70.9197 51.9476 71.2167 65.7099ZM70.5237 22.1456C69.1375 21.0565 67.1573 20.8584 65.5732 21.5515L65.6722 20.3634H65.7712C67.2563 19.6703 69.0385 19.7693 70.5237 20.6604V22.1456ZM70.5237 18.8783C69.1375 18.2842 67.4544 18.1852 65.9692 18.6802L66.1672 15.5119C67.5534 14.8188 69.1375 14.9179 70.5237 15.6109V18.8783ZM54.4841 18.4822C47.1573 17.6901 39.8306 17.4921 32.4049 18.0862C27.9494 18.4822 20.1276 18.0862 18.1474 23.2347C17.2563 25.5119 17.4544 28.1852 17.4544 30.5614L17.5534 41.9476L17.7514 64.8188C17.4544 65.8089 17.3554 66.799 17.4544 67.8882C18.0484 71.2545 21.2167 73.6307 24.6821 73.1357H24.7811L24.8801 75.908C24.8801 76.403 25.2761 76.7 25.7712 76.7C26.0682 76.7 26.2662 76.601 26.4643 76.304C26.6623 76.304 26.8603 76.205 26.9593 76.007L29.1375 73.7297L32.0088 76.106C32.4049 76.403 32.9989 76.304 33.2959 75.908C33.395 75.8089 33.395 75.8089 33.395 75.7099C33.494 75.6109 33.593 75.4129 33.593 75.2149C33.593 74.6208 33.593 74.1258 33.593 73.5317L54.5831 72.8386C55.0781 72.8386 55.4742 72.4426 55.4742 72.0466C55.4742 71.9476 55.4742 71.7495 55.3752 71.6505C55.3752 71.5515 55.4742 71.4525 55.4742 71.3535L55.5732 64.7198C55.5732 64.6208 55.5732 64.5218 55.5732 64.4228L55.9692 18.9773C55.9692 18.4822 55.5732 18.1852 55.0781 18.1852C54.7811 18.2842 54.5831 18.3832 54.4841 18.4822ZM19.1375 26.7C19.4346 22.9377 21.3158 21.2545 24.8801 20.6604H24.9791C21.5138 24.9179 22.2068 31.3535 22.2068 36.601L22.3059 60.3634L21.9098 60.5614C20.9197 60.9575 20.1276 61.5515 19.3356 62.3436C19.3356 56.8981 19.2365 51.3535 19.2365 45.908C19.2365 39.4723 18.7415 33.0367 19.1375 26.7ZM31.9098 74.0268L29.8306 72.3436C29.6326 72.2446 29.4346 72.1456 29.2365 72.1456C28.9395 71.9476 28.5435 72.0466 28.3455 72.3436L26.4643 74.3238L26.1672 66.601L31.9098 66.403C32.0088 68.8783 31.9098 71.4525 31.9098 74.0268ZM53.791 68.0862H39.0385C38.5435 68.1852 38.2464 68.5812 38.3455 68.9773C38.3455 69.3733 38.7415 69.6703 39.0385 69.6703H53.692V70.8584C53.593 70.9575 53.494 71.1555 53.494 71.2545L33.494 71.9476V66.205L53.692 65.5119C53.791 66.403 53.791 67.1951 53.791 68.0862ZM53.791 63.9278L25.5732 64.8188C25.1771 64.7198 24.6821 64.9179 24.5831 65.3139C24.5831 65.4129 24.4841 65.5119 24.5831 65.6109L24.7811 71.4525C22.1078 71.8485 19.6326 70.0664 19.2365 67.3931C19.1375 66.8981 19.1375 66.403 19.2365 65.908C19.3356 65.8089 19.4346 65.6109 19.4346 65.4129V65.2149C19.8306 64.2248 20.5237 63.3337 21.4148 62.7396C24.4841 60.5614 28.4445 61.0565 32.0088 61.1555L53.89 61.8485L53.791 63.9278ZM53.791 60.0664L36.7613 59.5713C32.7019 59.4723 27.9494 58.6802 23.89 59.7693V39.7693C23.89 33.6307 22.3059 24.5218 27.7514 20.2644C30.2266 19.9674 32.7019 19.7693 35.0781 19.5713C41.4148 19.2743 47.8504 19.4723 54.187 20.1654C54.088 33.4327 53.989 46.7 53.791 60.0664Z" fill="#1C1C1E"></path>
  <path d="M49.0385 25.8089C49.0385 25.4129 48.7415 25.0168 48.2464 25.0168C48.1474 25.0168 47.9494 25.0168 47.8504 25.1159L32.6028 25.6109C32.4048 25.6109 32.2068 25.7099 32.0088 25.8089C31.6127 25.8089 31.3157 26.205 31.3157 26.601L31.2167 35.4129C31.2167 35.6109 31.2167 35.7099 31.3157 35.9079C31.4147 36.205 31.7118 36.304 32.0088 36.304L47.6524 35.5119C48.0484 35.5119 48.3454 35.2149 48.4444 34.8188C48.5434 34.7198 48.5434 34.5218 48.5434 34.4228L49.0385 25.8089ZM47.3553 26.799L46.9593 34.0267L32.8999 34.7198L32.9989 27.2941L47.3553 26.799ZM43.89 41.2545L35.5731 41.4525C35.0781 41.5515 34.7811 41.9475 34.8801 42.3436C34.8801 42.7396 35.2761 43.0366 35.5731 43.0366L43.89 42.8386C44.385 42.7396 44.6821 42.3436 44.583 41.9475C44.583 41.5515 44.286 41.2545 43.89 41.2545ZM43.89 53.9277L35.5731 54.1258C35.0781 54.2248 34.7811 54.6208 34.8801 55.0168C34.8801 55.4129 35.2761 55.7099 35.5731 55.7099L43.89 55.5119C44.385 55.4129 44.6821 55.0168 44.583 54.6208C44.583 54.3238 44.286 53.9277 43.89 53.9277ZM49.7316 45.3139C42.8999 45.7099 36.0682 45.6109 29.2365 45.2149C28.1474 45.1159 28.1474 46.799 29.2365 46.898C36.0682 47.2941 42.8999 47.2941 49.7316 46.997C50.8207 46.898 50.8207 45.2149 49.7316 45.3139ZM46.8603 49.5713C41.7118 50.0663 36.5632 50.0664 31.4147 49.4723C30.3256 49.3733 30.3256 51.0565 31.4147 51.1555C36.5632 51.7495 41.7118 51.7495 46.8603 51.2545C47.9494 51.1555 47.9494 49.4723 46.8603 49.5713Z" fill="#1C1C1E"></path>
</svg>
