<?xml version="1.0" encoding="UTF-8"?>
<svg xmlns="http://www.w3.org/2000/svg" width="90" height="90" viewBox="0 0 90 90" fill="none">
  <path d="M45 90C69.8528 90 90 69.8528 90 45C90 20.1472 69.8528 0 45 0C20.1472 0 0 20.1472 0 45C0 69.8528 20.1472 90 45 90Z" fill="#FAE5B8"></path>
  <path d="M67.4285 46.9187C66.3809 42.1568 64.5714 37.5853 62.0952 33.3949C61.9047 33.0139 61.5238 32.9187 61.1428 33.1092C60.8571 33.1092 60.6666 33.2996 60.5714 33.4901C58.4762 37.6806 56.8571 42.0615 55.7143 46.633C55.619 47.0139 55.9047 47.4901 56.2857 47.5853C56.6666 47.6806 57.0476 47.4901 57.1428 47.1092C57.619 45.2996 58.0952 43.5853 58.7619 41.7758L64.1905 41.4901C64.8571 43.3949 65.4285 45.3949 65.9047 47.3949C66.1905 48.3472 67.619 47.8711 67.4285 46.9187ZM59.4285 40.1568C60 38.5377 60.6666 36.9187 61.4285 35.3949C62.2857 36.8234 62.9524 38.3472 63.619 39.9663L59.4285 40.1568Z" fill="#1C1C1E"></path>
  <path d="M73.5238 50.2521C75.4286 46.8235 76.2857 42.7283 75.7143 38.8235C75.5238 37.3949 75.1429 35.8711 74.4762 34.5378L74.6667 23.4902C74.6667 23.014 74.2857 22.7283 73.9048 22.7283C73.619 22.7283 73.4286 22.8235 73.3333 23.014L70.5714 22.9188V19.8711C70.5714 19.5854 70.381 19.2045 70 19.1092C69.9048 19.014 69.7143 18.9188 69.619 18.9188C61.8095 17.5854 49.7143 16.633 44.5714 24.0616C40.2857 16.5378 27.7143 18.3473 20.6667 20.2521C20.381 20.3473 20.0952 20.5378 20.0952 20.9188C20.0952 21.014 20 21.1092 20 21.2045V23.9664L16.381 23.7759C16.1905 23.7759 16 23.7759 15.8095 23.9664C15.4286 24.0616 15.2381 24.3473 15.2381 24.7283C15.4286 38.8235 15.5238 53.014 15.7143 67.1092C14.7619 67.1092 14.7619 68.633 15.7143 68.633C30 69.1092 44.2857 68.4426 58.5714 68.2521L58.7619 70.633C58.4762 71.014 58.4762 71.4902 58.8571 71.7759C58.9524 71.8711 59.0476 71.8711 59.1429 71.9664C60.381 72.4426 61.619 72.4426 62.8571 72.1568C63.2381 72.4426 63.7143 72.3473 64 71.9664C64.0952 71.8711 64.1905 71.6807 64.1905 71.5854L64.381 68.1568H64.4762C67.4286 67.8711 70.381 67.7759 73.3333 67.9664C73.5238 67.9664 73.7143 67.9664 73.8095 67.8711C74.0952 67.7759 74.2857 67.4902 74.2857 67.2045C74.2857 61.8711 74.2857 56.4426 74.2857 51.1092C74 50.633 73.8095 50.3473 73.5238 50.2521ZM73.1429 24.633L73.0476 31.8711C72.381 30.9188 71.5238 30.0616 70.6667 29.2997V29.2045L70.5714 24.4426L73.1429 24.633ZM45.4286 25.9664C45.4286 25.8711 45.3333 25.7759 45.3333 25.6807C49.619 18.1568 61.619 19.2045 68.9524 20.4426L69.0476 28.1568C67.0476 26.9188 64.6667 26.2521 62.2857 26.1568C62.1905 26.1568 62 26.1568 61.9048 26.2521C55.9048 25.1092 50.7619 28.8235 48.5714 34.3473C46.381 39.9664 46.8571 49.2045 51.8095 53.3949C53.5238 54.8235 55.5238 55.8711 57.7143 56.4426L57.9048 59.4902C53.3333 59.7759 48.8571 60.9188 45.9048 63.8711C45.3333 51.4902 44.8571 39.1092 45.1429 26.7283C45.3333 26.633 45.5238 26.2521 45.4286 25.9664ZM21.619 21.5854C28.1905 19.9664 40.2857 18.0616 43.619 25.6807C43.2381 38.9188 43.8095 52.1568 44.4762 65.3949C40.2857 58.4426 28.7619 59.6807 21.7143 61.4902C21.619 48.1568 21.619 34.9188 21.619 21.5854ZM17.2381 67.2045L16.8571 25.2997L20.0952 25.4902C20.0952 37.6807 20.0952 49.8711 20.0952 62.0616C20.0952 62.1568 20.0952 62.2521 20.1905 62.3473C20.1905 62.7283 20.4762 63.1092 20.9524 63.1092C21.0476 63.1092 21.1429 63.1092 21.1429 63.1092C27.5238 61.3949 40.2857 59.2997 43.619 67.014C34.7619 67.2997 26 67.3949 17.2381 67.2045ZM45.4286 67.014C47.9048 62.8235 52.8571 61.2997 58 61.014L58.381 66.7283C54.0952 66.8235 49.7143 66.9188 45.4286 67.014ZM62.5714 70.633C61.8095 70.8235 61.0476 70.9188 60.2857 70.7283L60.1905 69.5854C60.9524 69.7759 61.8095 69.6807 62.5714 69.4902V70.633ZM62.6667 67.8711C62.5714 67.8711 62.381 67.8711 62.2857 67.9664C61.619 68.2521 60.7619 68.3473 60.0952 68.0616L59.5238 59.7759C60.6667 60.2521 61.9048 60.3473 63.1429 60.0616L62.6667 67.8711ZM63.1429 58.3473H62.9524C61.7143 58.7283 60.381 58.5378 59.3333 57.7759L59.2381 56.8235C60.5714 57.1092 61.8095 57.1092 63.1429 57.1092V58.3473ZM64.2857 66.5378L64.5714 61.2997C66.2857 61.4902 67.8095 61.6807 69.2381 61.9664C69.5238 62.0616 69.8095 61.9664 70 61.6807C70.2857 61.5854 70.5714 61.2997 70.4762 60.9188L70.2857 54.1568C71.1429 53.4902 71.8095 52.633 72.4762 51.7759C72.4762 56.633 72.4762 61.3949 72.4762 66.2521C69.7143 66.1568 67.0476 66.2521 64.2857 66.5378ZM64.6667 59.7759L64.7619 57.014C66.1905 56.7283 67.5238 56.2521 68.7619 55.4902L68.8571 60.4426C67.5238 60.0616 66.0952 59.8711 64.6667 59.7759ZM62.381 55.6807C58.9524 55.6807 55.619 54.4426 52.9524 52.3473C50.0952 49.8711 49.2381 45.4902 49.1429 41.8711C48.8571 34.7283 53.3333 26.3473 61.619 27.8711C61.8095 27.8711 62 27.8711 62.1905 27.7759C62.2857 27.7759 62.381 27.7759 62.4762 27.7759C78.4762 28.0616 77.9048 55.5854 62.381 55.6807Z" fill="#1C1C1E"></path>
  <path d="M39.8096 33.5855C35.0477 31.2046 29.5239 31.0141 24.6667 33.2046C23.7143 33.5855 24.5715 34.9189 25.4286 34.5379C29.8096 32.6331 34.762 32.8236 39.0477 34.9189C39.9048 35.395 40.6667 34.0617 39.8096 33.5855ZM39.8096 40.3474C35.0477 37.9665 29.5239 37.776 24.6667 39.8712C23.7143 40.2522 24.5715 41.5855 25.4286 41.2046C29.8096 39.2998 34.762 39.4903 39.0477 41.5855C39.9048 42.157 40.6667 40.8236 39.8096 40.3474ZM39.8096 47.1093C35.0477 44.7284 29.5239 44.5379 24.6667 46.7284C23.7143 47.1093 24.5715 48.4427 25.4286 48.0617C29.8096 46.157 34.762 46.3474 39.0477 48.4427C39.9048 48.9189 40.6667 47.5855 39.8096 47.1093ZM39.8096 53.8712C35.0477 51.4903 29.5239 51.2998 24.6667 53.4903C23.7143 53.8712 24.5715 55.2046 25.4286 54.8236C29.8096 52.9189 34.762 53.1093 39.0477 55.2046C39.9048 55.6808 40.6667 54.3474 39.8096 53.8712Z" fill="#1C1C1E"></path>
</svg>
